# 3ds Max Wavefront OBJ Exporter v0.97b - (c)2007 guruware
# File Created: 20.03.2019 17:29:10

mtllib MIPS.mtl

#
# object Left_Foot
#

v  2.1594 1.8861 -2.9987
v  2.8419 0.0716 -4.1864
v  0.8759 0.0866 -3.4235
v  4.3768 1.9977 -0.8117
v  2.0908 2.0152 0.0755
v  3.6266 1.6017 0.6521
v  1.5004 0.1127 0.3542
v  4.9752 0.0861 -0.9942
# 8 vertices

vn -0.1921 0.8484 -0.4932
vn 0.3958 0.5128 -0.7618
vn -0.8063 0.5181 -0.2855
vn 0.4451 0.8584 -0.2551
vn -0.4930 0.8619 0.1182
vn -0.2885 0.2259 0.9305
vn 0.1319 0.9378 0.3213
vn -0.9373 0.3132 0.1528
vn 0.8436 0.2172 0.4911
vn 0.7928 0.2989 -0.5312
vn 0.2930 -0.5717 0.7664
vn 0.1624 -0.8852 0.4360
vn 0.1050 -0.9515 0.2892
vn -0.0047 -1.0000 0.0077
# 14 vertex normals

vt -1.0078 0.7227 0.0000
vt -0.7383 1.1211 0.0000
vt -0.5469 0.1895 0.0000
vt -0.2813 0.0527 0.0000
vt -0.1094 0.4531 0.0000
# 5 texture coords

g Left_Foot
usemtl VMtl036
s off
f 1/1/1 2/2/2 3/2/3 
f 4/3/4 1/1/1 5/3/5 
f 3/2/3 5/3/5 1/1/1 
f 6/4/6 5/3/6 7/5/6 
f 5/3/5 6/4/7 4/3/4 
f 5/3/5 3/2/3 7/5/8 
f 4/3/9 6/4/9 8/5/9 
f 2/2/2 4/3/4 8/5/10 
f 4/3/4 2/2/2 1/1/1 
usemtl Material12
f 6/4/11 7/5/12 8/5/13 
usemtl Material11
f 3/2/14 8/5/13 7/5/12 
f 8/5/13 3/2/14 2/2/14 
# 12 faces

#
# object Tooth
#

v  0.6883 8.5617 0.3179
v  -0.1864 7.5934 0.0979
v  -0.5368 8.5617 0.2690
v  0.3526 7.5934 0.1194
# 4 vertices

vn 0.0392 0.1876 -0.9815
vn -0.0392 -0.1876 0.9815
# 2 vertex normals

g Tooth
usemtl Material__46
s off
f 9//15 10//15 11//15 
f 12//15 10//15 9//15 
f 10//16 12//16 9//16 
f 10//16 9//16 11//16 
# 4 faces

#
# object Body
#

v  -2.6198 4.7612 -0.4232
v  -2.6942 4.5066 -3.4782
v  -0.5739 3.2895 -3.7238
v  -0.9440 3.2472 -0.5970
v  1.1632 3.2472 -0.5129
v  0.2642 4.0159 -5.0441
v  1.0923 3.2895 -3.6573
v  -1.7308 1.9787 -4.2501
v  3.1373 4.5066 -3.2456
v  2.8197 4.7612 -0.2062
v  2.2875 1.9787 -4.0898
v  0.0383 4.7831 0.6165
v  2.6080 6.2311 -3.5110
v  2.6707 6.4148 -1.3916
v  0.8626 8.7737 -1.5913
v  0.1765 8.7604 -2.8467
v  0.2291 7.2777 -4.1647
v  1.0156 7.0740 -0.5053
v  -0.5585 8.7737 -1.6480
v  -2.2827 6.4610 -1.4896
v  -0.7956 7.0754 -0.6267
v  -2.1454 6.2311 -3.7006
v  0.3180 3.1229 -6.3939
v  0.2982 1.6855 -5.8964
# 24 vertices

vn -0.5868 -0.8097 -0.0027
vn -0.8787 -0.2601 -0.4003
vn -0.3493 -0.9258 -0.1447
vn -0.3069 -0.8356 0.4557
vn 0.2130 -0.9001 0.3800
vn 0.0372 -0.1436 -0.9889
vn 0.4533 -0.8794 -0.1453
vn -0.7387 0.6271 -0.2470
vn -0.7987 0.3790 -0.4673
vn -0.7288 0.6790 -0.0890
vn -0.0374 -0.3437 0.9383
vn 0.9020 -0.2643 -0.3415
vn 0.5885 -0.8070 0.0496
vn 0.8172 0.3852 -0.4288
vn 0.7414 0.6361 -0.2140
vn 0.7247 0.6851 -0.0739
vn 0.6261 0.1673 0.7616
vn -0.0456 -0.0719 0.9964
vn 0.6986 0.4642 -0.5445
vn 0.8469 0.4495 0.2842
vn -0.6765 0.1847 0.7129
vn 0.4867 0.8304 0.2714
vn 0.0150 0.8634 -0.5043
vn 0.0315 0.4707 -0.8817
vn 0.2149 0.4965 0.8410
vn -0.4409 0.8075 0.3917
vn -0.8567 0.4555 0.2421
vn -0.3359 0.4808 0.8099
vn -0.6658 0.4642 -0.5841
vn -0.7566 0.1737 -0.6304
vn 0.7901 0.1802 -0.5859
vn -0.0067 -0.9859 0.1673
vn -0.6319 -0.2456 -0.7351
vn 0.6708 -0.2508 -0.6979
# 34 vertex normals

vt -1.2754 -0.1211 0.0000
vt -1.7227 0.6504 0.0000
vt -2.1504 0.6250 0.0000
vt -1.7969 -0.1836 0.0000
vt -2.0625 1.0215 0.0000
vt -2.6250 0.6328 0.0000
vt -1.1699 -0.3516 0.0000
vt -1.1777 0.8594 0.0000
vt -0.8652 0.3223 0.0000
vt -0.1387 0.5645 0.0000
vt -0.2852 0.8809 0.0000
vt -0.9063 1.0859 0.0000
vt -0.5508 0.1387 0.0000
vt -0.8496 0.3086 0.0000
vt -0.5566 0.1523 0.0000
vt -1.1777 0.8613 0.0000
vt -2.5059 1.2910 0.0000
vt -2.9043 1.0371 0.0000
# 18 texture coords

g Body
usemtl Material
s off
f 13/6/17 14/7/18 15/8/19 
f 16/9/20 15/8/19 17/9/21 
f 15/8/19 14/7/18 18/10/22 
f 17/9/21 15/8/19 19/8/23 
f 13/6/17 15/8/19 16/9/20 
f 18/10/24 20/11/25 15/8/26 
f 20/11/27 19/8/27 15/8/27 
f 21/7/28 22/6/29 19/8/23 
f 19/8/23 18/10/22 21/7/28 
f 19/8/23 22/6/29 17/9/21 
f 19/8/27 20/11/27 23/11/27 
f 23/11/30 18/10/31 19/8/32 
f 17/9/21 22/6/33 24/12/34 
f 17/9/21 24/12/34 16/9/20 
f 25/13/35 21/7/28 18/10/22 
f 26/14/36 22/6/33 21/7/28 
f 26/14/36 21/7/28 25/13/35 
f 16/9/20 24/12/34 13/6/37 
f 26/14/36 25/13/35 27/15/38 
f 28/16/39 25/13/35 29/17/40 
f 25/13/35 18/10/22 29/17/40 
f 27/15/38 25/13/35 28/16/39 
f 26/14/36 27/15/38 30/18/41 
f 30/18/41 22/6/33 26/14/36 
f 31/15/42 32/19/43 33/20/44 
f 32/19/43 14/7/18 13/6/37 
f 13/6/37 33/20/44 32/19/43 
f 14/7/18 32/19/43 34/21/45 
f 31/15/42 34/21/45 32/19/43 
f 18/10/22 34/21/45 29/17/40 
f 34/21/45 31/15/42 28/16/39 
f 34/21/45 18/10/22 14/7/18 
f 34/21/45 28/16/39 29/17/40 
f 30/18/41 31/15/42 33/20/44 
f 31/15/42 30/18/41 27/15/38 
f 28/16/39 31/15/42 27/15/38 
f 22/6/33 30/18/41 24/12/34 
f 33/20/44 13/6/37 24/12/34 
f 20/11/25 18/10/24 35/22/46 
f 18/10/31 23/11/30 35/22/47 
f 33/20/44 24/12/34 30/18/41 
f 23/11/48 20/11/48 36/23/48 
f 20/11/25 35/22/46 36/23/49 
f 35/22/47 23/11/30 36/23/50 
# 44 faces

#
# object Left_Leg
#

v  1.7488 4.0250 -1.5233
v  1.8218 1.5093 -1.3793
v  2.9795 1.6658 -1.2354
v  2.4242 4.1164 -1.4393
v  2.5836 1.5286 -3.1152
v  2.1679 4.0908 -2.5582
# 6 vertices

vn -0.1303 0.0529 0.9901
vn -0.9189 -0.0586 -0.3901
vn -0.9144 -0.0495 -0.4019
vn -0.9233 -0.0676 -0.3781
vn 0.9547 0.2009 -0.2194
vn 0.9534 0.2032 -0.2230
vn 0.9560 0.1987 -0.2158
# 7 vertex normals

vt 0.3796 0.7973 0.0000
vt 0.4048 0.2026 0.0000
vt 0.5923 0.2467 0.0000
vt 0.5129 0.8359 0.0000
vt -0.0365 0.2051 0.0000
vt 0.0754 0.8966 0.0000
vt 0.9635 0.2051 0.0000
# 7 texture coords

g Left_Leg
usemtl Material14
s off
f 37/24/51 38/25/51 39/26/51 
f 37/24/51 39/26/51 40/27/51 
f 37/24/52 41/28/52 38/25/53 
f 41/28/52 37/24/52 42/29/54 
f 40/27/55 41/30/55 42/29/56 
f 40/27/55 39/26/57 41/30/55 
# 6 faces

#
# object Right_Leg
#

v  -1.2966 1.4470 -3.0473
v  -2.3287 4.0905 -1.8468
v  -1.5482 4.0623 -2.6667
v  -2.6199 1.5922 -1.6773
v  -1.7112 4.1063 -1.5471
v  -1.5613 1.6192 -1.1634
# 6 vertices

vn -0.7201 0.0335 -0.6930
vn -0.7234 0.0308 -0.6898
vn -0.7169 0.0363 -0.6963
vn 0.9877 0.0772 0.1362
vn 0.9881 0.0798 0.1315
vn 0.9872 0.0745 0.1408
vn -0.4363 0.1114 0.8929
# 7 vertex normals

vt -0.0975 0.2271 0.0000
vt 0.3470 0.8946 0.0000
vt -0.1004 0.8422 0.0000
vt 0.3414 0.1869 0.0000
vt 0.9025 0.2271 0.0000
vt 0.5663 0.8630 0.0000
vt 0.5635 0.2303 0.0000
vt 0.8996 0.8422 0.0000
# 8 texture coords

g Right_Leg
usemtl Material18
s off
f 43/31/58 44/32/58 45/33/59 
f 46/34/60 44/32/58 43/31/58 
f 43/35/61 47/36/61 48/37/62 
f 47/36/61 43/35/61 45/38/63 
f 48/37/64 47/36/64 46/34/64 
f 46/34/64 47/36/64 44/32/64 
# 6 faces

#
# object Lower_Right_Ear1
#

v  4.9204 14.1387 -3.0864
v  1.2123 11.8815 -2.6271
v  2.3929 11.1955 -2.4798
v  2.6437 15.4617 -3.3704
v  4.1350 15.2378 -4.0201
v  3.7199 14.4624 -4.7613
v  1.6883 11.2486 -3.4452
# 7 vertices

vn 0.1260 0.4106 0.9031
vn -0.0033 0.2045 0.9789
vn 0.1925 0.5111 0.8377
vn 0.3590 0.7399 0.5690
vn -0.4840 0.4889 -0.7257
vn -0.7478 0.1809 -0.6388
vn -0.6012 0.3917 -0.6965
vn 0.7214 -0.3988 -0.5661
vn 0.6036 -0.6115 -0.5115
vn 0.7587 -0.2651 -0.5950
vn 0.8178 0.1034 -0.5662
vn -0.1789 0.7282 -0.6616
vn -0.7792 0.1873 -0.5982
vn 0.6132 -0.6259 -0.4819
# 14 vertex normals

vt 0.6855 2.0723 0.0000
vt -0.0508 1.9648 0.0000
vt 0.8281 1.6367 0.0000
vt 0.6973 1.0820 0.0000
vt -0.0703 1.3496 0.0000
# 5 texture coords

g Lower_Right_Ear1
usemtl Material7
s off
f 49/39/65 50/40/66 51/40/66 
f 52/39/67 50/40/66 49/39/65 
f 53/41/68 52/39/67 49/39/65 
usemtl Material3
f 54/42/69 55/43/70 52/39/71 
f 49/39/72 55/43/73 54/42/74 
f 53/41/75 49/39/72 54/42/74 
f 53/41/76 54/42/69 52/39/71 
f 52/39/71 55/43/70 50/40/77 
f 55/43/73 49/39/72 51/40/78 
# 9 faces

#
# object Left_Toe
#

v  2.2412 0.1633 4.5662
v  7.1333 0.1258 2.6677
v  5.3564 0.1350 5.4089
v  4.9496 0.1523 -1.0616
v  1.4748 0.1789 0.2869
v  2.6091 1.1533 -1.1475
v  4.3710 2.0205 -0.8270
v  2.0850 2.0381 0.0602
v  3.8486 2.2107 4.0588
v  5.6318 2.1971 3.3668
# 10 vertices

vn -0.0085 -1.0000 -0.0021
vn -0.0602 -0.8339 -0.5486
vn -0.1505 -0.9169 -0.3697
vn -0.3996 0.1320 -0.9071
vn -0.0465 0.8602 -0.5078
vn -0.6285 0.7310 -0.2658
vn -0.9028 0.4301 -0.0025
vn -0.3360 0.8422 0.4216
vn 0.6551 0.7458 0.1207
vn 0.8069 0.4791 -0.3455
vn 0.9048 0.3160 -0.2853
vn 0.8178 0.5723 0.0607
vn -0.5651 0.5873 0.5794
vn 0.3052 0.5445 0.7813
# 14 vertex normals

vt 0.7148 2.2188 0.0000
vt 1.0566 2.2012 0.0000
vt -0.0566 2.2480 0.0000
vt -0.2324 1.8164 0.0000
vt -0.0527 1.4297 0.0000
vt 0.7324 1.3086 0.0000
# 6 texture coords

g Left_Toe
usemtl VMtl037
s off
f 56/44/79 57/44/79 58/45/79 
f 57/44/79 56/44/79 59/46/80 
f 59/46/80 56/44/79 60/46/81 
usemtl Material9
f 61/47/82 59/46/80 60/46/81 
usemtl Material8
f 59/46/80 61/47/82 62/48/83 
f 61/47/82 63/48/84 62/48/83 
f 63/48/84 61/47/82 60/46/85 
f 62/48/83 64/49/86 65/49/87 
f 64/49/86 62/48/83 63/48/84 
f 65/49/87 59/46/88 62/48/89 
f 59/46/88 65/49/87 57/44/90 
f 60/46/85 64/49/86 63/48/84 
f 64/49/86 60/46/85 56/44/91 
f 64/49/86 56/44/91 58/45/92 
f 64/49/86 58/45/92 65/49/87 
f 65/49/87 58/45/92 57/44/90 
# 16 faces

#
# object Upper_Left_Ear
#

v  3.1281 18.1296 -0.7733
v  2.6187 15.4204 -3.3620
v  6.5010 16.1697 -0.3525
v  5.1694 17.9704 0.4151
v  4.8954 14.0975 -3.0780
v  3.6173 14.4143 -4.1615
v  4.1870 15.2943 -4.6296
v  5.7309 18.4880 -2.1318
# 8 vertices

vn -0.4300 -0.5941 0.6797
vn -0.4585 -0.6617 0.5932
vn -0.4283 -0.5902 0.6842
vn -0.4351 -0.6057 0.6662
vn -0.4726 -0.6978 0.5382
vn -0.5017 -0.7856 0.3621
vn -0.3292 0.8635 -0.3820
vn -0.5245 0.4729 -0.7080
vn -0.5712 0.3515 -0.7417
vn -0.6289 -0.0064 -0.7775
vn 0.5026 0.8305 -0.2400
vn 0.7767 -0.2714 -0.5685
vn 0.9621 0.1300 -0.2397
vn 0.6983 -0.3762 -0.6090
vn 0.4114 -0.6212 -0.6670
vn 0.4552 0.8476 0.2726
# 16 vertex normals

vt -0.2832 0.9668 0.0000
vt -1.0273 0.9668 0.0000
vt -0.0234 0.9766 0.0000
vt -1.2246 0.8809 0.0000
vt -1.1406 0.6641 0.0000
vt -0.2832 0.5039 0.0000
# 6 texture coords

g Upper_Left_Ear
usemtl Material6
s off
f 66/50/93 67/51/94 68/50/95 
f 66/50/93 68/50/95 69/52/96 
f 68/50/95 67/51/94 70/51/97 
f 71/53/98 70/51/97 67/51/94 
usemtl Material2
f 66/50/99 72/54/100 67/51/101 
f 71/53/102 67/51/101 72/54/100 
f 73/55/103 72/54/100 66/50/99 
f 72/54/104 68/50/105 70/51/106 
f 71/53/107 72/54/104 70/51/106 
f 68/50/105 72/54/104 73/55/103 
f 73/55/103 66/50/99 69/52/108 
f 73/55/103 69/52/108 68/50/105 
# 12 faces

#
# object Lower_Right_Ear
#

v  -3.5386 14.9166 -3.7016
v  -2.3379 15.7108 -4.4915
v  -2.0983 14.8089 -5.1620
v  -0.9644 15.5323 -3.6094
v  -1.2952 11.2099 -3.5525
v  -0.7444 11.7277 -2.6637
v  -2.0791 11.4084 -2.7114
# 7 vertices

vn -0.7248 -0.1954 -0.6607
vn -0.6607 0.3267 -0.6758
vn -0.7129 -0.0527 -0.6993
vn 0.7053 0.2864 -0.6485
vn 0.4858 0.6009 -0.6348
vn 0.7777 0.1639 -0.6069
vn 0.8443 -0.0716 -0.5310
vn 0.8662 -0.0728 -0.4944
vn -0.6828 -0.4368 -0.5857
vn -0.7042 -0.4483 -0.5505
vn -0.1670 0.5785 0.7984
vn -0.2176 0.8337 0.5076
vn -0.1428 0.4662 0.8731
vn -0.0909 0.2353 0.9677
vn 0.2000 -0.8955 0.3977
# 15 vertex normals

vt -0.3301 0.9297 0.0000
vt -0.0820 0.6426 0.0000
vt -0.3047 0.2949 0.0000
vt -1.6348 0.5098 0.0000
vt -1.6055 0.9043 0.0000
# 5 texture coords

g Lower_Right_Ear
usemtl Material5
s off
f 74/56/109 75/57/110 76/58/111 
f 76/58/112 75/57/113 77/56/114 
f 78/59/115 77/56/114 79/60/116 
f 78/59/115 76/58/112 77/56/114 
f 78/59/117 74/56/109 76/58/111 
f 74/56/109 78/59/117 80/60/118 
usemtl Material16
f 77/56/119 75/57/120 74/56/121 
f 79/60/122 77/56/119 74/56/121 
f 79/60/122 74/56/121 80/60/122 
f 78/59/123 79/60/123 80/60/123 
# 10 faces

#
# object Right_Toe
#

v  -2.0597 0.1518 4.5460
v  -6.7792 0.0311 2.2548
v  -4.2996 0.1068 -1.2841
v  -0.9474 0.1925 0.3433
v  -1.9785 1.1501 -1.1777
v  -5.2322 0.0651 5.1318
v  -5.3776 2.1273 3.0764
v  -3.7761 1.9845 -1.0009
v  -3.6574 2.1713 3.9115
v  -1.5708 2.0410 0.0697
# 10 vertices

vn 0.0268 -0.9996 -0.0026
vn 0.1199 -0.8313 -0.5428
vn 0.1968 -0.9130 -0.3573
vn 0.4697 0.1416 -0.8714
vn -0.6762 0.7336 0.0678
vn -0.7847 0.4653 -0.4096
vn -0.8303 0.5573 -0.0055
vn 0.0720 0.8623 -0.5013
vn -0.8842 0.3004 -0.3578
vn 0.2852 0.8471 0.4485
vn 0.6346 0.7429 -0.2128
vn 0.8920 0.4463 0.0716
vn 0.5052 0.5958 0.6243
vn -0.3777 0.5368 0.7544
# 14 vertex normals

vt 1.9258 0.8574 0.0000
vt 3.3789 0.7695 0.0000
vt 3.6953 0.4727 0.0000
vt 1.2852 0.8926 0.0000
vt 1.8613 0.2832 0.0000
vt 3.3457 0.2539 0.0000
# 6 texture coords

g Right_Toe
usemtl Material19
s off
f 81/61/124 82/61/124 83/62/125 
f 81/61/124 83/62/125 84/62/126 
usemtl VMtl033
f 83/62/125 85/63/127 84/62/126 
usemtl Material19
f 82/61/124 81/61/124 86/64/124 
usemtl Material20
f 87/65/128 83/62/129 82/61/130 
f 85/63/127 83/62/125 88/66/131 
f 83/62/129 87/65/128 88/66/132 
f 89/65/133 88/66/131 87/65/128 
f 90/66/134 85/63/127 88/66/131 
f 88/66/131 89/65/133 90/66/134 
f 85/63/127 90/66/134 84/62/135 
f 89/65/133 84/62/135 90/66/134 
f 84/62/135 89/65/133 81/61/136 
f 81/61/136 89/65/133 86/64/137 
f 86/64/137 89/65/133 87/65/128 
f 86/64/137 87/65/128 82/61/130 
# 16 faces

#
# object Right_Foot
#

v  -1.9425 0.0329 -4.2256
v  -1.3840 1.8656 -3.0015
v  -0.0459 0.0814 -3.3048
v  -1.5688 2.0182 0.0668
v  -3.1408 1.5872 0.5196
v  -0.9776 0.1263 0.4090
v  -3.7741 1.9618 -1.0038
v  -4.3297 0.0406 -1.2184
# 8 vertices

vn -0.3391 0.5016 -0.7959
vn 0.2203 0.8474 -0.4830
vn 0.8198 0.5274 -0.2230
vn 0.2084 0.2368 0.9489
vn -0.1704 0.9381 0.3015
vn 0.4700 0.8697 0.1508
vn -0.4343 0.8501 -0.2978
vn -0.8838 0.2088 0.4187
vn 0.9174 0.3276 0.2262
vn -0.7507 0.2837 -0.5966
vn -0.1855 -0.8842 0.4287
vn -0.3469 -0.5701 0.7447
vn -0.1154 -0.9507 0.2877
vn 0.0176 -0.9997 0.0165
# 14 vertex normals

vt 0.0020 -0.2617 0.0000
vt 0.1172 -0.0547 0.0000
vt 0.0020 0.1602 0.0000
vt -0.2949 0.1953 0.0000
vt -0.5039 -0.0586 0.0000
vt -0.5508 0.3223 0.0000
vt -0.2949 -0.3047 0.0000
vt -0.5508 -0.4355 0.0000
# 8 texture coords

g Right_Foot
usemtl Material23
s off
f 91/67/138 92/68/139 93/69/140 
f 94/70/141 95/71/141 96/72/141 
f 95/71/142 94/70/143 97/73/144 
f 95/71/145 97/73/145 98/74/145 
f 93/69/140 94/70/143 96/72/146 
f 92/68/139 97/73/144 94/70/143 
f 94/70/143 93/69/140 92/68/139 
f 97/73/144 91/67/138 98/74/147 
f 91/67/138 97/73/144 92/68/139 
f 96/72/148 95/71/149 98/74/150 
usemtl Material22
f 98/74/150 93/69/151 96/72/148 
f 93/69/151 98/74/150 91/67/151 
# 12 faces

#
# object Upper_Right_Ear
#

v  -0.9540 15.4862 -3.5973
v  -1.0906 18.4482 -1.2506
v  -4.9041 17.5361 -1.3872
v  -3.2602 18.9617 -0.4548
v  -3.5282 14.8704 -3.6894
v  -2.0986 14.7154 -4.5309
v  -2.3063 15.6732 -5.1289
v  -3.2652 19.3755 -3.0808
# 8 vertices

vn 0.1444 -0.7073 0.6920
vn 0.1225 -0.6271 0.7693
vn 0.1212 -0.6225 0.7732
vn 0.1262 -0.6407 0.7573
vn 0.1565 -0.7505 0.6420
vn 0.1882 -0.8581 0.4777
vn 0.7516 0.1141 -0.6497
vn 0.7088 -0.2566 -0.6571
vn 0.7376 0.2474 -0.6283
vn -0.7254 -0.1025 -0.6806
vn -0.4700 -0.5385 -0.6993
vn -0.6762 -0.2274 -0.7008
vn -0.2048 0.9102 -0.3601
vn 0.6111 0.7065 -0.3569
vn -0.8387 0.3597 -0.4088
vn -0.2351 0.9601 0.1517
# 16 vertex normals

vt -1.9512 0.8730 0.0000
vt -0.6133 0.9121 0.0000
vt -0.1387 0.9434 0.0000
vt -2.3223 0.7148 0.0000
vt -2.2109 0.3496 0.0000
vt -0.6914 0.1230 0.0000
# 6 texture coords

g Upper_Right_Ear
usemtl Material13
s off
f 99/75/152 100/76/153 101/76/154 
f 101/76/154 100/76/153 102/77/155 
f 99/75/152 101/76/154 103/75/156 
f 103/75/156 104/78/157 99/75/152 
usemtl Material4
f 99/75/158 104/78/159 105/79/160 
f 105/79/161 104/78/162 103/75/163 
f 105/79/160 106/80/164 100/76/165 
f 101/76/166 105/79/161 103/75/163 
f 105/79/160 100/76/165 99/75/158 
f 105/79/161 101/76/166 106/80/164 
f 100/76/165 106/80/164 102/77/167 
f 102/77/167 106/80/164 101/76/166 
# 12 faces

#
# object Head
#

v  -0.0268 10.6912 2.2527
v  -0.0182 9.7838 2.0349
v  0.7457 10.9701 1.3424
v  -0.6264 10.9701 1.2877
v  -2.0143 11.7555 -4.5245
v  -2.9673 11.2144 -0.3203
v  -1.5017 13.3287 -0.1460
v  -1.7592 9.6831 -4.7713
v  0.1519 13.8623 -2.2255
v  2.3082 9.6831 -4.6090
v  2.5921 11.7555 -4.3408
v  3.2073 11.2144 -0.0740
v  0.1250 8.1896 -1.5558
v  3.4183 8.7243 -1.6752
v  -3.0993 8.7243 -1.9352
v  1.6836 13.3287 -0.0190
v  0.0630 13.9678 0.0037
v  2.3630 8.8805 0.1722
v  -2.1455 8.8805 -0.0077
v  0.0336 8.3282 0.7344
# 20 vertices

vn 0.7757 -0.1403 0.6153
vn -0.0551 -0.3278 0.9431
vn 0.4121 0.3167 0.8543
vn -0.8586 -0.1274 0.4966
vn -0.4912 0.3223 0.8092
vn -0.0113 0.9587 0.2842
vn -0.4899 0.4983 -0.7153
vn -0.9481 0.1444 0.2833
vn -0.6068 0.7329 0.3075
vn -0.9531 0.0889 -0.2893
vn 0.0054 0.9624 -0.2715
vn 0.0396 0.1229 -0.9916
vn 0.6297 0.5587 -0.5397
vn 0.9246 0.1408 0.3540
vn 0.9737 0.0702 -0.2167
vn 0.0774 -0.9163 -0.3929
vn 0.0019 -0.9946 -0.1034
vn -0.0468 -0.9161 -0.3981
vn 0.1563 -0.9834 -0.0926
vn 0.9918 0.0019 0.1277
vn -0.9980 0.0129 0.0618
vn -0.1510 -0.9832 -0.1022
vn 0.5699 0.7416 0.3538
vn -0.0034 0.9989 -0.0474
vn 0.5392 -0.5714 0.6187
vn -0.5951 -0.5632 0.5732
vn -0.0239 -0.9031 0.4288
vn -0.0376 0.4292 0.9024
# 28 vertex normals

vt 0.4718 0.6814 0.0000
vt 0.4545 0.1386 0.0000
vt 0.8387 0.7015 0.0000
vt 0.1524 0.6959 0.0000
vt 0.0078 -0.8281 0.0000
vt -0.1426 -1.0098 0.0000
vt 0.1406 -1.5605 0.0000
vt 0.0547 -0.2891 0.0000
vt 0.4473 -1.5352 0.0000
vt 0.8379 -0.2891 0.0000
vt 0.8848 -0.8281 0.0000
vt 1.0371 -1.0098 0.0000
vt 0.4473 -0.1250 0.0000
vt 1.0684 -0.2559 0.0000
vt -0.1738 -0.2559 0.0000
vt 0.7520 -1.5605 0.0000
vt 0.4473 -1.7285 0.0000
vt 0.8809 -0.4434 0.0000
vt 0.0137 -0.4434 0.0000
vt 0.4473 -0.3438 0.0000
vt 0.6172 0.6172 0.0000
vt 0.4570 0.0000 0.0000
vt 0.3008 0.6172 0.0000
vt 0.1016 0.0781 0.0000
vt 0.8145 0.0781 0.0000
vt -0.0449 0.9004 0.0000
vt 0.4570 0.8887 0.0000
vt -0.2305 0.4570 0.0000
vt 0.4570 1.0566 0.0000
vt 0.9648 0.9004 0.0000
vt 1.1484 0.4570 0.0000
vt -0.2656 0.7813 0.0000
vt 1.1836 0.7813 0.0000
# 33 texture coords

g Head
usemtl Material17
s off
f 107/81/168 108/82/169 109/83/170 
f 107/81/171 110/84/172 108/82/169 
f 109/83/170 110/84/172 107/81/173 
usemtl Material1
f 111/85/174 112/86/175 113/87/176 
f 111/85/174 114/88/177 112/86/175 
f 115/89/178 111/85/174 113/87/176 
f 114/88/179 111/85/174 116/90/179 
f 116/90/179 111/85/174 117/91/180 
f 117/91/180 111/85/174 115/89/178 
f 118/92/181 116/90/182 117/91/180 
f 116/90/183 119/93/184 114/88/185 
f 119/93/184 116/90/183 120/94/186 
f 118/92/181 120/94/187 116/90/182 
f 112/86/175 114/88/177 121/95/188 
f 114/88/185 119/93/184 121/95/189 
f 118/92/181 117/91/180 122/96/190 
f 117/91/180 115/89/178 122/96/190 
f 115/89/178 123/97/191 122/96/190 
f 123/97/191 115/89/178 113/87/176 
f 124/98/192 119/93/184 120/94/186 
f 119/93/184 125/99/193 121/95/189 
f 125/99/193 119/93/184 126/100/194 
f 119/93/184 124/98/192 126/100/194 
f 109/101/170 123/102/195 110/103/172 
f 123/102/195 113/104/176 110/103/172 
f 123/102/195 109/101/170 122/105/190 
f 110/103/172 125/106/193 108/107/169 
f 112/108/175 125/106/193 110/103/172 
f 113/104/176 112/108/175 110/103/172 
f 108/107/169 125/106/193 126/109/194 
f 109/101/170 108/107/169 124/110/192 
f 118/111/181 109/101/170 124/110/192 
f 122/105/190 109/101/170 118/111/181 
f 112/108/175 121/112/188 125/106/193 
f 118/111/181 124/110/192 120/113/187 
f 124/110/192 108/107/169 126/109/194 
# 36 faces

